<?xml version="1.0" ?>
<!DOCTYPE svg  PUBLIC '-//W3C//DTD SVG 1.1//EN'  'http://www.w3.org/Graphics/SVG/1.1/DTD/svg11.dtd'>
<!-- Uploaded to: SVG Repo, www.svgrepo.com, Generator: SVG Repo Mixer Tools -->
<svg width="800px" height="800px" viewBox="0 0 64 64" enable-background="new 0 0 64 64" version="1.1" xml:space="preserve" xmlns="http://www.w3.org/2000/svg" xmlns:xlink="http://www.w3.org/1999/xlink">
<g id="grid"/>
<g id="Layer_2"/>
<g id="Layer_3"/>
<g id="Layer_4"/>
<g id="Layer_5"/>
<g id="Layer_6"/>
<g id="Layer_7"/>
<g id="Layer_8"/>
<g id="Layer_9"/>
<g id="Layer_10"/>
<g id="Layer_37"/>
<g id="Layer_11"/>
<g id="Layer_12">
<g>
<g>
<path d="M60.751,47.242c-0.01-0.43-0.01-0.88-0.01-1.33     v-25.84c0-6.62-0.37-9-7-9h-42.5c-6.631,0-8,0.38-8,7v32.84c0,6.62,3.369,6,10,6h41.5C60.921,56.912,60.791,53.112,60.751,47.242     z M32.001,50.822c-3.58,0-6.84-1.35-9.311-3.58c-2.83-2.54-4.609-6.23-4.609-10.33c0-4.48,2.109-8.46,5.399-11     c2.36-1.83,5.311-2.92,8.521-2.92s6.16,1.09,8.52,2.92c3.29,2.54,5.4,6.52,5.4,11c0,4.1-1.78,7.79-4.61,10.33     C38.841,49.472,35.581,50.822,32.001,50.822z" fill="none" stroke="#000000" stroke-miterlimit="10" stroke-width="2"/>
</g>
<g>
<path d="M16.921,21.993H5.331v-7.5h11.59V21.993z M7.331,19.993h7.59v-3.5h-7.59V19.993z"/>
</g>
<g>
<path d="M32.001,51.822c-3.694,0-7.239-1.363-9.98-3.838c-3.138-2.816-4.939-6.853-4.939-11.072c0-4.654,2.11-8.952,5.788-11.792     c2.639-2.046,5.797-3.128,9.132-3.128c3.335,0,6.493,1.082,9.132,3.13c3.677,2.839,5.788,7.137,5.788,11.79     c0,4.219-1.801,8.255-4.942,11.074C39.24,50.459,35.695,51.822,32.001,51.822z M32.001,23.992c-2.887,0-5.621,0.937-7.908,2.71     c-3.186,2.46-5.012,6.181-5.012,10.21c0,3.652,1.559,7.146,4.277,9.586c2.376,2.145,5.444,3.324,8.643,3.324     s6.267-1.18,8.64-3.322c2.721-2.442,4.28-5.936,4.28-9.588c0-4.029-1.827-7.75-5.012-10.208     C37.622,24.929,34.888,23.992,32.001,23.992z"/>
</g>
<g>
<path d="M32.001,48.194c-6.039,0-10.952-4.913-10.952-10.952c0-6.039,4.913-10.951,10.952-10.951s10.952,4.913,10.952,10.951     C42.953,43.281,38.04,48.194,32.001,48.194z M32.001,28.291c-4.936,0-8.952,4.016-8.952,8.951c0,4.936,4.016,8.952,8.952,8.952     s8.952-4.016,8.952-8.952C40.953,32.306,36.937,28.291,32.001,28.291z"/>
</g>
<g>
<polygon points="53.331,11.072 51.331,11.072 51.331,8.072 45.501,8.072 45.501,11.072 43.501,11.072 43.501,6.072 53.331,6.072         "/>
</g>
<g>
<rect height="2" width="19.449" x="3.241" y="46.242"/>
</g>
<g>
<rect height="2" width="19.44" x="41.311" y="46.242"/>
</g>
<g>
<rect height="2" width="20.221" x="40.521" y="24.912"/>
</g>
<g>
<rect height="2" width="20.239" x="3.241" y="24.912"/>
</g>
</g>
<g>
<path d="M49.917,21.833c-2.022,0-3.667-1.645-3.667-3.667c0-2.022,1.645-3.667,3.667-3.667c2.021,0,3.667,1.645,3.667,3.667    C53.583,20.188,51.938,21.833,49.917,21.833z M49.917,16.5c-0.919,0-1.667,0.748-1.667,1.667s0.748,1.667,1.667,1.667    s1.667-0.748,1.667-1.667S50.836,16.5,49.917,16.5z"/>
</g>
</g>
<g id="Layer_13"/>
<g id="Layer_14"/>
<g id="Layer_16"/>
<g id="Layer_17"/>
<g id="Layer_18"/>
<g id="Layer_19"/>
<g id="Layer_20"/>
<g id="Layer_21"/>
<g id="Layer_22"/>
<g id="Layer_23"/>
<g id="Layer_24"/>
<g id="Layer_25"/>
</svg>