<?xml version="1.0" encoding="utf-8"?><!-- Uploaded to: SVG Repo, www.svgrepo.com, Generator: SVG Repo Mixer Tools -->
<svg width="800px" height="800px" viewBox="0 0 24 24" xmlns="http://www.w3.org/2000/svg" id="sort-ascending" class="icon glyph"><path d="M6,20a1,1,0,0,1-.71-.29l-4-4a1,1,0,0,1,1.42-1.42L6,17.59l3.29-3.3a1,1,0,0,1,1.42,1.42l-4,4A1,1,0,0,1,6,20Z" style="fill:#231f20"></path><path d="M6,20a1,1,0,0,1-1-1V4A1,1,0,0,1,7,4V19A1,1,0,0,1,6,20Z" style="fill:#231f20"></path><path d="M20,17H15a1,1,0,0,1,0-2h5a1,1,0,0,1,0,2Z" style="fill:#231f20"></path><path d="M20,12H13a1,1,0,0,1,0-2h7a1,1,0,0,1,0,2Z" style="fill:#231f20"></path><path d="M20,7H10a1,1,0,0,1,0-2H20a1,1,0,0,1,0,2Z" style="fill:#231f20"></path></svg>